HIERARCHY
ROOT pelvis
{
  OFFSET 0 100 0
  CHANNELS 6 Xposition Yposition Zposition Zrotation Xrotation Yrotation
  JOINT pelvis_right_femur
  {
    OFFSET -10.78128 -3.44521 -0.5502486
    CHANNELS 3 Zrotation Xrotation Yrotation
    JOINT right_femur_tibia
    {
      OFFSET -0.8047443 -44.0398 -0.1307829
      CHANNELS 3 Zrotation Xrotation Yrotation
      JOINT right_tibia_foot
      {
        OFFSET 3.006224 -47.83518 -5
        CHANNELS 3 Zrotation Xrotation Yrotation
        End Site
        {
          OFFSET 0 -5 15
        }
      }
    }
  }
  JOINT pelvis_left_femur
  {
    OFFSET 10.78128 -3.44521 -0.5502486
    CHANNELS 3 Zrotation Xrotation Yrotation
    JOINT left_femur_tibia
    {
      OFFSET 0.8047443 -44.0398 -0.1307829
      CHANNELS 3 Zrotation Xrotation Yrotation
      JOINT left_tibia_foot
      {
        OFFSET -4.370144 -48.10324 -4.275266
        CHANNELS 3 Zrotation Xrotation Yrotation
        End Site
        {
          OFFSET 0 -5 15
        }
      }
    }
  }
  JOINT pelvis_spine1
  {
    OFFSET 0 6.468898 -3.129235
    CHANNELS 3 Zrotation Xrotation Yrotation
    JOINT spine1
    {
      OFFSET 0 23.15396 4.99043
      CHANNELS 3 Zrotation Xrotation Yrotation
      JOINT spine2
      {
        OFFSET 0 20.79997 -5.064912
        CHANNELS 3 Zrotation Xrotation Yrotation
        JOINT neck
        {
          OFFSET 0 14.38658 9.616178
          CHANNELS 3 Zrotation Xrotation Yrotation
          End Site
          {
            OFFSET 0 20 0
          }
        }
      }
      JOINT right_manubrium
      {
        OFFSET -5.722621 16.35077 3.967754
        CHANNELS 3 Zrotation Xrotation Yrotation
        JOINT right_clavicle
        {
          OFFSET -13.16364 1.694482 -4.693211
          CHANNELS 3 Zrotation Xrotation Yrotation
          JOINT right_humerus
          {
            OFFSET -28.5034 -0.3100689 -2.792744
            CHANNELS 3 Zrotation Xrotation Yrotation
            JOINT right_radius
            {
              OFFSET -25.15693 0.02248979 -1.271978
              CHANNELS 3 Zrotation Xrotation Yrotation
              End Site
              {
                OFFSET -15 0 0
              }
            }
          }
        }
      }
      JOINT left_manubrium
      {
        OFFSET 5.722621 16.35077 3.967754
        CHANNELS 3 Zrotation Xrotation Yrotation
        JOINT left_clavicle
        {
          OFFSET 13.16364 1.694482 -4.693211
          CHANNELS 3 Zrotation Xrotation Yrotation
          JOINT left_humerus
          {
            OFFSET 29.39168 -1.063119 -2.237045
            CHANNELS 3 Zrotation Xrotation Yrotation
            JOINT left_radius
            {
              OFFSET 24.59957 -0.9528479 0.9047498
              CHANNELS 3 Zrotation Xrotation Yrotation
              End Site
              {
                OFFSET 15 -0 -0
              }
            }
          }
        }
      }
    }
  }
}
MOTION
Frames: 23
Frame Time: 0.0416666666667
1058.81 95.61546 2964.725 6.402313 -6.679539 31.84486 -0.3603867 1.777101 4.521971 -0 57.94729 -0 4.728684 0.7761275 -7.416446 -5.506962 -5.059308 -7.876769 -0 21.27508 -0 -3.933764 -12.5427 16.89405 -2.984904 0.4386425 5.621526 -1.309646 10.32624 -4.229491 2.288818 22.61279 5.984551 1.257809 -16.21742 8.771244 2.50957 -18.13806 10.54218 85.71969 25.3019 -10.73356 -0 0 17.59973 -25.66716 14.40458 13.51334 3.104901 -15.68469 -4.122697 -88.29665 23.94417 19.32874 0 0 -12.6295 -1.376785 6.322845 16.47351
1062.612 96.55717 2969.288 5.976883 -6.348746 33.12476 0.00124775 -4.715621 3.957151 -0 56.73081 -0 3.631799 1.395381 -8.152111 -5.541158 -0.2468676 -7.871949 -0 18.65527 -0 -3.404443 -13.94881 16.18322 -2.945633 0.6022619 4.493173 -0.7594037 10.43925 -5.326249 1.96735 22.5398 6.320179 1.397988 -16.25894 8.690769 2.92928 -17.35996 10.61467 86.65277 26.43681 -12.87218 -0 0 15.71635 -25.34914 14.8196 13.40725 3.379829 -17.0156 -4.520704 -86.47827 23.76177 16.33451 0 0 -14.97106 -0.6612956 6.779014 15.53769
1066.283 97.07574 2973.728 5.298248 -5.633609 34.2942 0.30049 -11.33771 3.301389 -0 51.02602 -0 2.632261 1.123523 -8.630029 -5.423754 4.136724 -7.776184 -0 16.15123 -0 -3.119153 -15.48323 15.3432 -2.878369 0.6919592 3.602431 -0.1107815 10.41053 -6.472136 1.660259 22.29929 6.693417 1.615122 -16.46876 8.612644 3.263555 -16.60208 10.64594 87.47832 27.73858 -15.21827 -0 0 13.98624 -25.17652 15.42671 13.38445 3.906448 -18.51896 -4.816404 -84.69462 23.34166 13.18419 0 0 -17.83895 0.04062355 7.178292 14.51405
1069.862 96.94428 2978.169 4.809004 -4.916687 35.33225 0.2816587 -17.03763 2.607144 -0 41.90889 -0 1.885158 -0.4558234 -9.020702 -5.332014 8.076232 -7.742607 -0 14.36939 -0 -3.19731 -17.00307 14.52574 -2.856821 0.7318483 3.028319 0.4402087 10.11611 -7.326416 1.621545 22.18917 6.793116 1.650646 -16.46042 8.673745 3.097315 -15.75005 10.44378 88.44185 28.2474 -17.45085 -0 0 12.39252 -24.71956 15.7681 13.02846 4.660569 -19.86947 -4.918557 -82.94454 22.83001 9.65232 0 0 -20.90391 0.8918612 7.495891 13.20255
1073.34 96.01694 2982.702 5.04716 -4.709938 36.28902 -0.2813006 -20.94853 1.875283 -0 31.9496 -0 1.199316 -3.71879 -9.542951 -5.380977 11.99787 -8.003575 -0 13.1226 -0 -3.746796 -18.46301 13.82557 -2.970728 0.7669927 2.625011 0.6715738 9.407259 -7.565242 2.112835 22.64477 6.229855 1.207778 -15.74314 8.958256 1.99722 -14.62828 9.825793 89.71092 26.81311 -19.15077 -0 0 10.81575 -23.3075 15.12775 11.74105 5.521791 -20.76133 -4.80611 -81.05679 22.73117 5.279439 0 0 -23.98142 2.041923 7.940685 11.44313
1076.706 94.42395 2987.465 5.844051 -5.012593 37.18083 -0.9181479 -23.23301 1.163365 -0 23.0963 -0 0.1635808 -8.007537 -10.25467 -5.354822 16.36936 -8.718391 -0 12.94515 -0 -5.130632 -19.81579 13.08083 -3.155447 0.8905111 2.042894 0.5893682 8.109083 -7.225812 3.046053 23.69624 5.105471 0.5057343 -14.38018 9.320069 0.3491639 -12.93633 8.892878 91.0089 24.13148 -20.18139 -0 0 9.033806 -20.71387 13.46519 9.343773 6.324022 -21.03346 -4.524308 -79.18627 23.79124 0.2495751 0 0 -26.62814 2.974468 8.932592 9.724971
1080.119 92.78863 2992.686 6.030166 -5.103935 37.85421 -0.4415862 -24.44448 0.9805465 -0 16.98137 -0 -0.925648 -9.932708 -10.74433 -4.929832 19.93139 -9.266609 -0 15.79285 -0 -6.786007 -20.06726 12.41251 -3.053169 0.9578495 1.351292 0.5868038 7.00561 -6.983808 3.580265 24.27579 4.423116 0.3888904 -13.69996 9.266014 -0.3530955 -11.32939 8.392878 91.75303 23.1075 -20.97921 -0 0 7.235119 -18.44936 12.21395 7.317384 6.785481 -21.00369 -4.274169 -78.27215 24.9631 -2.846896 0 0 -27.86106 3.20272 9.837772 8.76638
1083.715 91.71892 2998.313 5.406222 -4.99361 38.22204 1.250578 -24.15053 1.83148 -0 15.57287 -0 -1.456772 -8.420846 -10.77471 -4.367994 20.79222 -9.030355 -0 22.09959 -0 -7.486585 -18.37394 12.31978 -2.499921 0.7663019 1.129359 0.885784 7.146233 -7.207711 3.348571 23.84364 4.453242 0.8158543 -14.36277 8.686643 0.2120638 -11.06424 8.720261 91.91088 23.83787 -21.66263 -0 0 6.244842 -17.55961 12.07851 6.83864 6.580099 -21.00668 -4.246899 -78.86424 24.87863 -1.998813 0 0 -27.4102 2.975753 9.660647 8.882085
1087.377 91.29201 3004.067 5.097787 -5.473213 38.35239 3.046382 -22.13476 3.15355 -0 17.70358 -0 -2.04926 -7.329496 -10.83431 -3.924528 19.70944 -8.635916 -0 30.41137 -0 -7.767137 -15.83035 12.66134 -1.850341 0.7335707 1.279379 1.197384 7.694247 -7.321451 3.156766 23.54362 4.251237 0.9975498 -14.95227 8.061588 0.8210753 -11.44013 9.1718 91.73591 23.98012 -21.53285 -0 0 6.114617 -16.64926 11.68551 6.628488 5.846501 -20.6402 -4.286502 -80.09264 24.7651 0.2688877 0 0 -25.62711 2.512058 9.221469 9.628906
1091.003 91.43456 3009.795 5.203817 -6.23732 38.24454 4.328274 -19.27678 4.228784 -0 20.09382 -0 -2.66602 -7.3911 -10.89781 -3.605664 17.77067 -8.365128 -0 38.45228 -0 -8.082799 -13.49669 13.17197 -1.350999 0.8755168 1.594274 1.367989 8.109754 -7.174694 3.171757 23.60395 3.849618 0.9800953 -15.09182 7.59813 1.163822 -11.81378 9.477504 91.37056 23.58847 -20.86772 -0 0 6.362859 -15.73588 11.06191 6.327726 5.09094 -20.05842 -4.287978 -81.36036 24.96715 2.326915 0 0 -23.51538 1.965231 9.002339 10.4587
1094.563 92.02673 3015.457 5.382381 -6.851521 37.90893 5.099531 -16.37529 4.918685 -0 21.42054 -0 -2.98512 -7.70627 -10.80002 -3.380943 15.44998 -8.115967 -0 44.96414 -0 -8.377482 -11.62013 13.70924 -1.012048 0.9974627 2.030607 1.43181 8.475434 -6.937612 3.213875 23.70877 3.566638 0.9830294 -15.10607 7.286827 1.424895 -12.18547 9.733967 90.92043 23.29657 -20.18125 -0 0 6.76384 -15.338 10.74635 6.218889 4.547183 -19.58801 -4.268929 -82.50321 25.11477 4.095664 0 0 -21.81094 1.460096 8.872408 11.19332
1098.048 92.93144 3021.043 5.56107 -7.319815 37.37731 5.541807 -13.44972 5.368322 -0 21.92597 -0 -3.043822 -8.070644 -10.55408 -3.202309 12.79426 -7.832104 -0 50.18362 -0 -8.620482 -10.07582 14.27224 -0.7806123 1.084123 2.570155 1.421999 8.840298 -6.653411 3.245951 23.78899 3.402244 1.021992 -15.09584 7.071191 1.638667 -12.61424 9.98022 90.40501 23.11488 -19.49988 -0 0 7.313764 -15.37583 10.68991 6.297663 4.1609 -19.23055 -4.243773 -83.5655 25.17472 5.745668 0 0 -20.47532 0.978384 8.734146 11.88457
1101.452 94.03872 3026.546 5.694 -7.640912 36.66842 5.774115 -10.41132 5.681267 -0 21.70586 -0 -2.89777 -8.38677 -10.15154 -3.026645 9.673765 -7.46138 -0 54.38833 -0 -8.790436 -8.73727 14.86815 -0.6181482 1.130669 3.233862 1.367798 9.25574 -6.349768 3.241148 23.79807 3.345449 1.106322 -15.14891 6.896702 1.834818 -13.18208 10.25652 89.7997 23.03316 -18.81644 -0 0 8.059179 -15.7991 10.83484 6.585994 3.879074 -18.98951 -4.220932 -84.61994 25.1481 7.467362 0 0 -19.46485 0.4769644 8.508498 12.63048
1104.781 95.23625 3031.956 5.759836 -7.801712 35.80017 5.838206 -7.189507 5.904113 -0 20.79161 -0 -2.572183 -8.637334 -9.573567 -2.812325 5.942254 -6.962045 -0 57.49926 -0 -8.860227 -7.57283 15.50793 -0.5120244 1.141949 4.038052 1.276273 9.741203 -6.033534 3.183718 23.71201 3.396603 1.240099 -15.30717 6.739975 2.017792 -13.95067 10.58174 89.06396 23.04467 -18.08776 -0 0 9.071161 -16.61255 11.14035 7.119675 3.68123 -18.86603 -4.201607 -85.70432 25.03986 9.366383 0 0 -18.76971 -0.06587283 8.141596 13.48571
1108.046 96.38862 3037.26 5.749331 -7.784044 34.79675 5.742296 -3.703028 6.065487 -0 19.22224 -0 -2.079981 -8.862318 -8.798844 -2.499926 1.424839 -6.286365 -0 59.11909 -0 -8.787012 -6.614453 16.21661 -0.4616444 1.133665 4.990227 1.13975 10.28999 -5.696687 3.063344 23.51609 3.558382 1.42108 -15.58624 6.59231 2.166962 -14.98253 10.95889 88.13818 23.12938 -17.21531 -0 0 10.46405 -17.84254 11.54455 7.945661 3.562684 -18.84385 -4.179427 -86.84609 24.85637 11.5213 0 0 -18.36742 -0.661857 7.577794 14.47935
1111.28 97.32308 3042.445 5.645935 -7.566774 33.6953 5.489877 0.05989883 6.194321 -0 17.12159 -0 -1.443495 -9.147169 -7.826332 -1.999136 -3.965378 -5.384787 -0 58.47616 -0 -8.510021 -5.962402 17.01913 -0.4683593 1.131582 6.058333 0.945343 10.85516 -5.331271 2.872847 23.19684 3.828474 1.636717 -15.98067 6.452927 2.236309 -16.3274 11.3667 86.95784 23.24684 -16.04922 -0 0 12.38113 -19.48487 11.93472 9.101956 3.530834 -18.87601 -4.137169 -88.04991 24.59702 13.96649 0 0 -18.18991 -1.300918 6.758337 15.59246
1114.537 97.83022 3047.514 5.433199 -7.169333 32.55396 5.106352 4.015282 6.335176 -0 14.86608 -0 -0.7161475 -9.66714 -6.718599 -1.195642 -10.05618 -4.242751 -0 54.56386 -0 -7.983681 -5.765673 17.93554 -0.5196667 1.177276 7.132228 0.6781444 11.31585 -4.924939 2.625721 22.76153 4.168315 1.846175 -16.42843 6.329347 2.138056 -17.97636 11.73224 85.48651 23.27572 -14.37086 -0 0 14.96495 -21.39592 12.09916 10.54783 3.595387 -18.82812 -4.038376 -89.3022 24.25712 16.66246 0 0 -17.98995 -1.947668 5.655661 16.72148
1117.91 97.7117 3052.514 5.103668 -6.693796 31.45104 4.656644 7.962111 6.538051 -0 13.17477 -0 0.02425313 -10.64787 -5.62738 -0.03273989 -16.2044 -2.971808 -0 46.79548 -0 -7.2777 -6.12889 18.9287 -0.5647976 1.305606 8.017317 0.331388 11.47558 -4.460257 2.376271 22.25577 4.477853 1.974539 -16.79798 6.237861 1.756881 -19.79457 11.91694 83.79921 22.96126 -11.98661 -0 0 18.25481 -23.19359 11.76401 12.07929 3.756518 -18.44951 -3.82977 -90.59151 23.82826 19.48881 0 0 -17.2476 -2.557057 4.344587 17.68318
1121.512 96.89505 3057.559 4.689906 -6.311881 30.47359 4.197292 11.63834 6.78759 -0 12.95512 -0 0.7549087 -12.12593 -4.722866 1.283559 -21.3261 -1.942665 -0 36.25752 -0 -6.718685 -6.950799 19.77983 -0.5169891 1.480443 8.540897 -0.08919642 11.15634 -3.909865 2.22659 21.77131 4.624216 1.94707 -16.95255 6.217652 1.031965 -21.4808 11.7668 82.19296 21.98099 -9.001392 -0 0 21.99896 -24.35662 10.81277 13.3309 3.990417 -17.47546 -3.478193 -91.93663 23.33409 22.30037 0 0 -15.37664 -3.112431 3.088345 18.3428
1125.454 95.56729 3062.806 4.296093 -6.113295 29.70245 3.658065 14.80341 6.918303 -0 14.84568 -0 1.620248 -13.5474 -4.004406 2.158354 -24.50742 -1.710344 -0 26.36149 -0 -6.784335 -7.846248 20.04261 -0.3547191 1.539786 8.757204 -0.5671015 10.41014 -3.260613 2.268496 21.41304 4.582484 1.777193 -16.92411 6.351978 0.1317104 -22.65885 11.27735 81.10664 20.37506 -6.084934 -0 0 25.48535 -24.71075 9.649913 14.01563 4.229175 -15.94707 -3.04138 -93.3209 22.89601 24.97638 0 0 -12.46452 -3.604317 2.320247 18.78748
1129.768 94.16896 3068.339 4.082701 -5.969017 29.20476 2.852981 17.17431 6.727341 -0 18.91793 -0 2.827632 -13.84823 -3.323609 1.98583 -25.66411 -2.492848 -0 20.80476 -0 -7.450116 -8.379514 19.47551 -0.2746711 1.300835 8.929398 -1.055421 9.618619 -2.604529 2.469983 21.2459 4.544971 1.595591 -16.95071 6.730362 -0.4678311 -23.08604 10.71781 80.68817 19.06918 -4.164115 -0 0 27.67758 -24.8071 9.216542 14.22184 4.344523 -14.41434 -2.677368 -94.46468 22.68842 27.22086 0 0 -9.720425 -3.905765 2.406281 19.1517
1134.366 93.1583 3074.067 4.198287 -5.7275 29.02843 1.751466 18.34989 6.268033 -0 24.83811 -0 4.255708 -12.37414 -2.811633 0.7316919 -25.20817 -3.859438 -0 20.18326 -0 -7.855168 -8.510259 18.57574 -0.5849437 0.7909728 9.146177 -1.460661 9.209714 -2.162899 2.668051 21.27904 4.72745 1.516664 -17.15064 7.315432 -0.3412256 -22.78499 10.41847 80.67738 19.28054 -3.657868 -0 0 27.87464 -25.33824 10.13269 14.31436 4.210455 -13.50984 -2.526851 -94.84658 22.7562 28.41414 0 0 -8.393392 -3.834886 3.277099 19.27052
1139.077 92.76058 3079.791 4.68382 -5.508045 29.20564 0.6170711 18.04934 5.818908 -0 32.10193 -0 5.440611 -9.494664 -2.882612 -1.078906 -23.36079 -5.223454 -0 21.97492 -0 -7.375191 -8.653902 18.02855 -1.305025 0.2716835 9.187163 -1.718157 9.267842 -2.074123 2.741397 21.4721 5.083629 1.515576 -17.3253 7.905601 0.369504 -22.01162 10.41284 80.98827 20.93753 -4.264273 -0 0 26.40186 -26.21714 11.81868 14.47257 3.855628 -13.332 -2.6123 -94.29586 22.99196 28.20948 0 0 -8.4417 -3.469208 4.342081 19.00479
